<svg width="528" height="396" xmlns="http://www.w3.org/2000/svg" xmlns:xlink="http://www.w3.org/1999/xlink"><defs><linearGradient x1="50%" y1="21.15%" x2="50%" y2="90.219%" id="a"><stop stop-color="#EBF0F7" stop-opacity="0" offset="0%"/><stop stop-color="#D3DDEC" stop-opacity=".48" offset="100%"/></linearGradient><path d="M55.256.756L1.21 74.512a2.8 2.8 0 0 0-.502 2.086 2.76 2.76 0 0 0 1.13 1.818l53.417 37.801V.757z" id="b"/><linearGradient x1="19.946%" y1="72.147%" x2="73.772%" y2="18.374%" id="d"><stop stop-color="#25B2F2" offset="0%"/><stop stop-color="#85D4F8" offset="100%"/></linearGradient><path d="M60.228 0L1.27 80.461a3.055 3.055 0 0 0-.547 2.276 3.012 3.012 0 0 0 1.232 1.983l58.273 41.237V0z" id="c"/><linearGradient x1="19.946%" y1="72.147%" x2="73.772%" y2="18.374%" id="e"><stop stop-color="#25B2F2" offset="0%"/><stop stop-color="#25B2F2" offset="100%"/></linearGradient><linearGradient x1="0%" y1="7.395%" x2="0%" y2="100%" id="g"><stop stop-color="#53C0F1" stop-opacity=".24" offset="0%"/><stop stop-color="#D2F1FF" offset="100%"/></linearGradient></defs><g fill="none" fill-rule="evenodd"><rect fill="#FFF" width="528" height="396" rx="3"/><path d="M324 0h201a3 3 0 0 1 3 3v390a3 3 0 0 1-3 3H324V0z" fill="url(#a)"/><path fill="#D3DDEC" fill-rule="nonzero" d="M471.08 78.963l12.406 53.737-123.642-24.034-12.407-53.737z"/><path fill="#4346DE" d="M301.355 141.977l4.807 54.941 110.164-61.065-4.806-54.941z"/><use fill="#D3DDEC" fill-rule="nonzero" xlink:href="#b" transform="scale(-1 1) rotate(-39 182.576 684.992)"/><path d="M258.554 256.674l88.42-23.308-72.662 89.73-17.725-62.991a2.767 2.767 0 0 1 .267-2.124 2.801 2.801 0 0 1 1.7-1.307z" fill="#F8FBFF" fill-rule="nonzero"/><g transform="scale(-1 1) rotate(54 -346.579 -319.301)"><mask id="f" fill="#fff"><use xlink:href="#c"/></mask><use fill="url(#d)" fill-rule="nonzero" xlink:href="#c"/><path d="M44.658 15.57L-14.3 96.033a3.055 3.055 0 0 0-.548 2.275 3.012 3.012 0 0 0 1.233 1.984l58.273 41.237V15.571z" fill="url(#e)" fill-rule="nonzero" mask="url(#f)"/></g><path d="M119.65 80.463L60.688 0v125.957l58.272-41.235a3.019 3.019 0 0 0 1.233-1.983 3.056 3.056 0 0 0-.545-2.276z" fill="url(#g)" fill-rule="nonzero" transform="scale(-1 1) rotate(54 -346.349 -319.753)"/></g></svg>