<svg width="528" height="397" xmlns="http://www.w3.org/2000/svg" xmlns:xlink="http://www.w3.org/1999/xlink"><defs><linearGradient x1="50%" y1="21.15%" x2="50%" y2="90.219%" id="a"><stop stop-color="#EBF0F7" stop-opacity="0" offset="0%"/><stop stop-color="#D3DDEC" stop-opacity=".48" offset="100%"/></linearGradient><filter x="-89.3%" y="-128.6%" width="278.8%" height="358%" filterUnits="objectBoundingBox" id="b"><feOffset dx="24" dy="24" in="SourceAlpha" result="shadowOffsetOuter1"/><feGaussianBlur stdDeviation="24" in="shadowOffsetOuter1" result="shadowBlurOuter1"/><feColorMatrix values="0 0 0 0 0.0941176471 0 0 0 0 0.137254902 0 0 0 0 0.203921569 0 0 0 0.04 0" in="shadowBlurOuter1" result="shadowMatrixOuter1"/><feMerge><feMergeNode in="shadowMatrixOuter1"/><feMergeNode in="SourceGraphic"/></feMerge></filter><filter x="-88.5%" y="-127.8%" width="276.9%" height="355.6%" filterUnits="objectBoundingBox" id="c"><feOffset dx="24" dy="24" in="SourceAlpha" result="shadowOffsetOuter1"/><feGaussianBlur stdDeviation="24" in="shadowOffsetOuter1" result="shadowBlurOuter1"/><feColorMatrix values="0 0 0 0 0.0941176471 0 0 0 0 0.137254902 0 0 0 0 0.203921569 0 0 0 0.04 0" in="shadowBlurOuter1" result="shadowMatrixOuter1"/><feMerge><feMergeNode in="shadowMatrixOuter1"/><feMergeNode in="SourceGraphic"/></feMerge></filter><linearGradient x1="0%" y1="7.395%" x2="0%" y2="100%" id="d"><stop stop-color="#53C0F1" stop-opacity=".24" offset="0%"/><stop stop-color="#D2F1FF" offset="100%"/></linearGradient><path d="M76.776 77.345l76.776-38.715L79.227 1.154a5.441 5.441 0 0 0-4.908 0L0 38.63l76.776 38.715z" id="e"/><linearGradient x1="0%" y1="7.395%" x2="0%" y2="100%" id="f"><stop stop-color="#FFF" stop-opacity=".24" offset="0%"/><stop stop-color="#FFF" offset="100%"/></linearGradient><linearGradient x1="100%" y1="27.276%" x2="0%" y2="75.582%" id="h"><stop stop-color="#25B2F2" stop-opacity=".64" offset="0%"/><stop stop-color="#85D4F8" offset="100%"/></linearGradient><linearGradient x1="73.772%" y1="18.374%" x2="19.946%" y2="72.147%" id="i"><stop stop-color="#25B2F2" offset="0%"/><stop stop-color="#85D4F8" offset="100%"/></linearGradient></defs><g fill="none" fill-rule="evenodd"><g transform="translate(0 .29)"><rect fill="#FFF" width="528" height="396" rx="3"/><path d="M0 0h201a3 3 0 0 1 3 3v390a3 3 0 0 1-3 3H0V0z" fill="url(#a)" transform="matrix(-1 0 0 1 204 0)"/></g><path fill="#D3DDEC" fill-rule="nonzero" d="M274.405 111.03l-3.855 55.126-111.433-59.25 3.854-55.127z"/><path fill="#4346DE" d="M78.16 63.27l-11.49 54.053 123.449-26.24 11.49-54.053z"/><g filter="url(#b)" transform="rotate(32 -266.037 248.096)" fill-rule="nonzero"><path d="M77.815 77.521l76.776-38.714L80.267 1.33a5.441 5.441 0 0 0-4.909 0L1.04 38.807 77.815 77.52z" fill="#F8FBFF"/><path d="M154.2 68.653L77.424 106.59V76.165L154.2 38.228v30.425z" fill-opacity=".48" fill="#D3DDEC"/><path d="M77.57 107.034L.793 69.097V38.67l76.775 37.937v30.426z" fill="#D3DDEC"/></g><g filter="url(#c)" transform="rotate(-125 147.645 106.368)"><path d="M77.815 77.521l76.776-38.714L80.267 1.33a5.441 5.441 0 0 0-4.909 0L1.04 38.807 77.815 77.52z" fill="url(#d)" fill-rule="nonzero"/><g transform="translate(1.04 .177)"><mask id="g" fill="#fff"><use xlink:href="#e"/></mask><use fill="url(#d)" fill-rule="nonzero" xlink:href="#e"/><path d="M101.996 63.103l76.776-38.714-74.324-37.477a5.441 5.441 0 0 0-4.908 0L25.22 24.39l76.776 38.714z" fill="url(#f)" fill-rule="nonzero" mask="url(#g)"/></g><path d="M154.2 68.653L77.424 106.59V76.165L154.2 38.228v30.425z" fill="url(#h)" fill-rule="nonzero"/><path d="M77.57 107.034L.793 69.097V38.67l76.775 37.937v30.426z" fill="url(#i)" fill-rule="nonzero"/></g></g></svg>