<svg width="528" height="397" xmlns="http://www.w3.org/2000/svg" xmlns:xlink="http://www.w3.org/1999/xlink"><defs><linearGradient x1="50%" y1="21.15%" x2="50%" y2="90.219%" id="a"><stop stop-color="#EBF0F7" stop-opacity="0" offset="0%"/><stop stop-color="#D3DDEC" stop-opacity=".48" offset="100%"/></linearGradient><filter x="-129.8%" y="-117%" width="359.5%" height="334.1%" filterUnits="objectBoundingBox" id="b"><feOffset dx="24" dy="24" in="SourceAlpha" result="shadowOffsetOuter1"/><feGaussianBlur stdDeviation="24" in="shadowOffsetOuter1" result="shadowBlurOuter1"/><feColorMatrix values="0 0 0 0 0.0941176471 0 0 0 0 0.137254902 0 0 0 0 0.203921569 0 0 0 0.04 0" in="shadowBlurOuter1" result="shadowMatrixOuter1"/><feMerge><feMergeNode in="shadowMatrixOuter1"/><feMergeNode in="SourceGraphic"/></feMerge></filter><path d="M36.213 71.904L0 89.86v-63.4L52.652.353V61.45a3.72 3.72 0 0 1-2.08 3.334l-14.359 7.12z" id="c"/><filter x="-117.9%" y="-107.8%" width="335.9%" height="315.6%" filterUnits="objectBoundingBox" id="d"><feOffset dx="24" dy="24" in="SourceAlpha" result="shadowOffsetOuter1"/><feGaussianBlur stdDeviation="24" in="shadowOffsetOuter1" result="shadowBlurOuter1"/><feColorMatrix values="0 0 0 0 0.0941176471 0 0 0 0 0.137254902 0 0 0 0 0.203921569 0 0 0 0.04 0" in="shadowBlurOuter1" result="shadowMatrixOuter1"/><feMerge><feMergeNode in="shadowMatrixOuter1"/><feMergeNode in="SourceGraphic"/></feMerge></filter><linearGradient x1="19.946%" y1="72.147%" x2="73.772%" y2="18.374%" id="f"><stop stop-color="#25B2F2" offset="0%"/><stop stop-color="#85D4F8" offset="100%"/></linearGradient><path d="M39.418 78.268L0 97.813V28.8L57.31.384v66.504a4.05 4.05 0 0 1-2.263 3.63l-15.63 7.75z" id="e"/><linearGradient x1="19.973%" y1="18.348%" x2="72.474%" y2="70.9%" id="g"><stop stop-color="#FFF" stop-opacity=".48" offset="0%"/><stop stop-color="#FFF" stop-opacity="0" offset="100%"/></linearGradient><linearGradient x1="0%" y1="7.395%" x2="0%" y2="100%" id="i"><stop stop-color="#53C0F1" stop-opacity=".24" offset="0%"/><stop stop-color="#D2F1FF" offset="100%"/></linearGradient><linearGradient x1="100%" y1="27.276%" x2="0%" y2="75.582%" id="j"><stop stop-color="#25B2F2" stop-opacity=".64" offset="0%"/><stop stop-color="#85D4F8" offset="100%"/></linearGradient><linearGradient x1="100%" y1="27.276%" x2="21.723%" y2="100%" id="k"><stop stop-color="#25B2F2" stop-opacity="0" offset="0%"/><stop stop-color="#55C3F5" offset="100%"/></linearGradient></defs><g fill="none" fill-rule="evenodd"><g transform="translate(0 .29)"><rect fill="#FFF" width="528" height="396" rx="3"/><path d="M324 0h201a3 3 0 0 1 3 3v390a3 3 0 0 1-3 3H324V0z" fill="url(#a)"/></g><path fill="#D3DDEC" fill-rule="nonzero" d="M455.944 66.54l11.504 54.12-123.601-26.272-11.505-54.12z"/><path fill="#4346DE" d="M284.595 126.776l3.86 55.195 111.57-59.324-3.858-55.195z"/><g filter="url(#b)" transform="rotate(19 -535.734 940.207)" fill-rule="nonzero"><path d="M52.889 53.08l52.652-26.55L54.57.828a3.731 3.731 0 0 0-3.367 0L.238 26.529l52.651 26.55z" fill="#F8FBFF"/><use fill-opacity=".48" fill="#D3DDEC" xlink:href="#c" transform="translate(51.558 27.01)"/><path d="M52.827 117.023L2.128 91.885a3.729 3.729 0 0 1-1.952-3.272V27.516l52.651 26.107v63.4z" fill="#D3DDEC"/></g><g filter="url(#d)" transform="rotate(-44 424.135 -301.767)"><g transform="translate(57.267 29.494)"><mask id="h" fill="#fff"><use xlink:href="#e"/></mask><use fill-opacity=".64" fill="url(#f)" fill-rule="nonzero" xlink:href="#e"/><path d="M111.544 57.048L29.775 97.38V-.478l82.528-40.786v95.452c0 1.022-.27 2.003-.759 2.86z" fill="url(#g)" fill-rule="nonzero" mask="url(#h)"/></g><path d="M58.395 125.872L3.209 98.508a4.058 4.058 0 0 1-2.125-3.56V28.442l57.31 28.417v69.012z" fill="url(#i)" fill-rule="nonzero"/><g fill-rule="nonzero"><path d="M57.856 57.39l57.31-28.899L59.687.517a4.062 4.062 0 0 0-3.664 0L.545 28.49l57.311 28.9z" fill-opacity=".56" fill="url(#j)" transform="translate(.86 .479)"/><path d="M.745 28.39L56.022.517a4.062 4.062 0 0 1 3.664 0L94.935 18.29l-57.11 28.798L.745 28.39z" fill="url(#k)" transform="translate(.86 .479)"/></g></g></g></svg>