<svg width="1584" height="792" xmlns="http://www.w3.org/2000/svg"><defs><linearGradient x1="73.772%" y1="18.374%" x2="19.946%" y2="72.147%" id="a"><stop stop-color="#4346DE" stop-opacity=".24" offset="0%"/><stop stop-color="#4346DE" stop-opacity=".24" offset="100%"/></linearGradient><filter x="-79.8%" y="-115%" width="259.5%" height="330%" filterUnits="objectBoundingBox" id="b"><feOffset dx="24" dy="24" in="SourceAlpha" result="shadowOffsetOuter1"/><feGaussianBlur stdDeviation="24" in="shadowOffsetOuter1" result="shadowBlurOuter1"/><feColorMatrix values="0 0 0 0 0.0941176471 0 0 0 0 0.137254902 0 0 0 0 0.203921569 0 0 0 0.04 0" in="shadowBlurOuter1" result="shadowMatrixOuter1"/><feMerge><feMergeNode in="shadowMatrixOuter1"/><feMergeNode in="SourceGraphic"/></feMerge></filter><linearGradient x1="0%" y1="7.395%" x2="0%" y2="100%" id="c"><stop stop-color="#53C0F1" stop-opacity=".24" offset="0%"/><stop stop-color="#D2F1FF" offset="100%"/></linearGradient><linearGradient x1="100%" y1="27.276%" x2="0%" y2="75.582%" id="d"><stop stop-color="#25B2F2" stop-opacity=".64" offset="0%"/><stop stop-color="#85D4F8" offset="100%"/></linearGradient><linearGradient x1="73.772%" y1="18.374%" x2="19.946%" y2="72.147%" id="e"><stop stop-color="#25B2F2" offset="0%"/><stop stop-color="#85D4F8" offset="100%"/></linearGradient><filter x="-237.9%" y="-215.6%" width="575.9%" height="531.2%" filterUnits="objectBoundingBox" id="f"><feOffset dx="24" dy="24" in="SourceAlpha" result="shadowOffsetOuter1"/><feGaussianBlur stdDeviation="24" in="shadowOffsetOuter1" result="shadowBlurOuter1"/><feColorMatrix values="0 0 0 0 0.0941176471 0 0 0 0 0.137254902 0 0 0 0 0.203921569 0 0 0 0.04 0" in="shadowBlurOuter1" result="shadowMatrixOuter1"/><feMerge><feMergeNode in="shadowMatrixOuter1"/><feMergeNode in="SourceGraphic"/></feMerge></filter></defs><g fill="none" fill-rule="evenodd"><path fill="#D2F1FF" d="M875.47 699.404l-6.108 87.358 187.937-68.404 6.11-87.358z"/><path fill="#55C3F5" d="M574.419 678.118l-6.076 87.346 563.268-205.013 6.075-87.345z"/><path d="M1091.422 704.122l-5.955 85.173 185.88-67.655 5.957-85.174-185.882 67.656z" stroke="#D3DDEC" stroke-width="2"/><path fill="#4346DE" d="M793.437 465.013l-6.075 87.345 563.268-205.013 6.075-87.345z"/><path fill="#E0E1FF" d="M444.47 462.404l-6.108 87.358 187.937-68.404L632.41 394z"/><path d="M544 220l100-50.426-96.807-48.812a7.087 7.087 0 0 0-6.393 0L444 169.574 544 220z" fill="url(#a)" fill-rule="nonzero"/><path d="M643 210l-100 49.875v-40L643 170v40z" fill="#6E71E6" fill-rule="nonzero"/><path d="M544 259.875L444 210v-40l100 49.875v40z" fill="#E0E1FF" fill-rule="nonzero" opacity=".64"/><g filter="url(#b)" transform="rotate(-133 358.236 311.158)" fill-rule="nonzero"><path d="M86.954 86.716l85.792-43.307L89.693 1.49a6.074 6.074 0 0 0-5.485 0L1.161 43.408l85.793 43.307z" fill-opacity=".32" fill="url(#c)"/><path d="M172.309 76.796l-85.793 42.437V85.199l85.793-42.437v34.034z" fill-opacity=".48" fill="url(#d)"/><path d="M86.679 119.729L.887 77.293V43.258l85.792 42.437v34.034z" fill-opacity=".64" fill="url(#e)"/></g><g filter="url(#f)" transform="rotate(-44 1028 -223.824)" fill-rule="nonzero"><path d="M29 28.943l29-14.595L29.926.22a2.059 2.059 0 0 0-1.854 0L0 14.348l29 14.595z" fill-opacity=".8" fill="#D3DDEC"/><path d="M48.656 54.035L28.71 63.964V28.907l29-14.435v33.783c0 .781-.443 1.495-1.145 1.843l-7.91 3.937z" fill-opacity=".48" fill="#D3DDEC"/><path d="M29 63.964l-27.925-13.9A2.063 2.063 0 0 1 0 48.254V14.473l29 14.435v35.057z" fill="#F8FBFF"/></g></g></svg>