<svg width="4320" height="1323" xmlns="http://www.w3.org/2000/svg"><defs><linearGradient x1="50%" y1="0%" x2="50%" y2="75.381%" id="a"><stop stop-color="#F8FBFF" stop-opacity="0" offset="0%"/><stop stop-color="#F8FBFF" offset="100%"/></linearGradient><linearGradient x1="47.558%" y1="48.623%" x2="100.454%" y2="0%" id="b"><stop stop-color="#F8FBFF" stop-opacity="0" offset="0%"/><stop stop-color="#D3DDEC" offset="100%"/></linearGradient><linearGradient x1="79.327%" y1="100%" x2="33.778%" y2="100%" id="c"><stop stop-color="#D3DDEC" stop-opacity="0" offset="0%"/><stop stop-color="#D3DDEC" stop-opacity=".48" offset="100%"/></linearGradient></defs><g fill="none" fill-rule="evenodd"><path fill="url(#a)" d="M234 754h2880v275L234 2077z" transform="translate(-234 -754)"/><path fill="url(#b)" d="M234 754h2880L234 1817z" transform="translate(-234 -754)"/><path fill="url(#c)" transform="rotate(-20 -987.243 1025.684)" d="M290.58 398.505L42.616 1079.782l2145.263-2.156 305.166-400z"/><path fill="#FFA695" d="M1130.437 826.013l-6.075 87.345 563.268-205.013 6.075-87.345z"/><path fill="#FFE4DF" d="M990.437 737.013l-6.075 87.345 563.268-205.013 6.075-87.345z"/><path fill="#D3DDEC" d="M2764.47 148.68l-6.108 87.358 326.073-118.68 6.108-87.356V30z"/></g></svg>