<svg width="1440" height="153" xmlns="http://www.w3.org/2000/svg" xmlns:xlink="http://www.w3.org/1999/xlink"><defs><filter x="-90.2%" y="-81.7%" width="280.4%" height="263.3%" filterUnits="objectBoundingBox" id="a"><feOffset dx="24" dy="24" in="SourceAlpha" result="shadowOffsetOuter1"/><feGaussianBlur stdDeviation="24" in="shadowOffsetOuter1" result="shadowBlurOuter1"/><feColorMatrix values="0 0 0 0 0.0941176471 0 0 0 0 0.137254902 0 0 0 0 0.203921569 0 0 0 0.04 0" in="shadowBlurOuter1" result="shadowMatrixOuter1"/><feMerge><feMergeNode in="shadowMatrixOuter1"/><feMergeNode in="SourceGraphic"/></feMerge></filter><path d="M52.272 104.013L0 129.987V38.275L76 .51v88.38a5.383 5.383 0 0 1-3.002 4.823l-20.726 10.3z" id="b"/></defs><g filter="url(#a)" transform="rotate(27 422.09 1455.36)" fill="none"><path d="M76.35 76.392l76-38.324L78.777.971a5.386 5.386 0 0 0-4.859 0L.35 38.068l76 38.324z" fill="#F8FBFF"/><use fill-opacity=".48" fill="#D3DDEC" xlink:href="#b" transform="translate(75.3 38.801)"/><path d="M76.167 168.924l-73.182-36.23a5.372 5.372 0 0 1-2.818-4.715V39.924l76 37.626v91.374z" fill="#D3DDEC"/></g></svg>