<svg width="38" height="40" xmlns="http://www.w3.org/2000/svg"><defs><linearGradient x1="19.946%" y1="72.147%" x2="73.772%" y2="18.374%" id="a"><stop stop-color="#25B2F2" offset="0%"/><stop stop-color="#85D4F8" offset="100%"/></linearGradient><linearGradient x1="19.946%" y1="72.147%" x2="73.772%" y2="18.374%" id="b"><stop stop-color="#25B2F2" offset="0%"/><stop stop-color="#25B2F2" offset="100%"/></linearGradient><linearGradient x1="0%" y1="7.395%" x2="0%" y2="100%" id="c"><stop stop-color="#53C0F1" stop-opacity=".24" offset="0%"/><stop stop-color="#D2F1FF" offset="100%"/></linearGradient></defs><g fill="none"><path d="M18.856.415L.398 25.328a.931.931 0 0 0 .214 1.319l18.244 12.768v-39z" fill="url(#a)" transform="matrix(-1 0 0 1 38 0)"/><path d="M11.981 9.694v24.91L.612 26.647a.931.931 0 0 1-.214-1.319L11.98 9.694z" fill="url(#b)" transform="matrix(-1 0 0 1 38 0)"/><path d="M37.814 25.329L19 .415v39l18.594-12.768a.925.925 0 0 0 .22-1.319z" fill="url(#c)" transform="matrix(-1 0 0 1 38 0)"/></g></svg>