<svg id="Layer_1" data-name="Layer 1" xmlns="http://www.w3.org/2000/svg" viewBox="0 0 500 414"><defs><style>.cls-1{fill:#04aaaa;}.cls-2{fill:#f4926c;}.cls-3{fill:#fc9e7a;}.cls-4{fill:#fecca7;}.cls-5{fill:#edb28a;}.cls-6{fill:#fcd6be;}.cls-7{fill:#ffa579;}.cls-8{fill:#fca886;}.cls-9{fill:#f4a082;}.cls-10{fill:#f79779;}.cls-11{fill:#f7b69f;}.cls-12{opacity:0.42;}.cls-13{fill:none;stroke:#af6038;stroke-linecap:round;stroke-miterlimit:10;opacity:0.44;}.cls-14{fill:#ffd9c0;opacity:0.39;}.cls-15{fill:#fff;}.cls-16{fill:#1382bf;}.cls-17{fill:#f97d7d;}</style></defs><title>reliable</title><circle class="cls-1" cx="250" cy="207" r="207"/><path class="cls-2" d="M-1902.95,541.69c-5.65,4-8.87,10.49-15.33,15.33s-26.64,7.27-26.64,7.27-15.33-10.5-27.44-16.15-21-9.68-25-11.29c-2.4-1-1.94-2.78-1.18-4.1-1,1.14-2.6,2.48-4.47,2.48s-2.31-.48-2.46-.91c-.75,1.39-5.27,2.88-8,4.95-1.91,1.43-3,.6-3.51-.31a7.34,7.34,0,0,1,.28,4.34,238.26,238.26,0,0,1-13.72,29.87c-4.08,7.14-12.37,7.5-18.51,5-26.24,61.49,51.6,83,51.6,83s36.32-30.67,57.31-42,33.9-26.63,46.81-36.32,21.79-11.3,41.16-15.33,58.11-3.23,96.85-11.3l-.56-58.76C-1765.46,500.2-1897.5,537.8-1902.95,541.69Z" transform="translate(2255.25 -333.08)"/><path class="cls-3" d="M-1904.56,543.3l-.27-.11c-4.56,4-7.75,9.55-13.45,13.83-6.46,4.85-26.64,7.27-26.64,7.27s-15.33-10.5-27.44-16.15-21-9.68-25-11.29c-2.4-1-1.94-2.78-1.18-4.1-1,1.14-2.6,2.48-4.47,2.48s-2.31-.48-2.46-.91c-.75,1.39-5.27,2.88-8,4.95-1.91,1.43-3,.6-3.51-.31a7.34,7.34,0,0,1,.28,4.34,238.26,238.26,0,0,1-13.72,29.87c-4.08,7.14-12.37,7.5-18.51,5-26.24,61.49,51.6,83,51.6,83s36.32-30.67,57.31-42,33.9-26.63,46.81-36.32c.9-.67,1.78-1.31,2.64-1.91C-1883.76,563.51-1891.09,549.07-1904.56,543.3Z" transform="translate(2255.25 -333.08)"/><path class="cls-4" d="M-2255.25,514.25c35.52,4,59.73,4,90.4,2.42s42.78-3.23,53.27-.81,25.82-4,42-10.49,29.86-10.49,37.12-13.72,18.57-6.46,30.67,4,25,24.22,25,24.22l-23.4,13.72s26.63,12.91,39.55,21,21,12.92,29.05,16.95,17.76,8.07,22.6,13.72,11.3,13.72,6.46,20.18-16.15,8.07-22.6,2.42-15.34-8.07-20.18-11.3-24.21-11.3-26.63-12.91-5.65,0-1.62,3.23S-1960.65,595-1951,603s14.53,9.68,17.76,10.49,8.07,15.34.8,21.79-20.17,2.42-20.17,2.42,2.42,8.88-4,13.72-15.33,2.43-15.33,2.43,1.61,11.29-9.69,12.1-17.76-3.23-23.4-7.26-80.72-39.55-92.82-47.62-18.57-13.72-33.09-13.72-124.3,9.68-124.3,9.68Z" transform="translate(2255.25 -333.08)"/><path class="cls-5" d="M-1952.18,640.38a15,15,0,0,0-.4-2.65c-9.69-8.07-38.74-28.25-42-29.86s-7.27-1.61,2.42,4.84,29.86,19.37,34.7,23.41C-1955.33,637.86-1953.54,639.31-1952.18,640.38Z" transform="translate(2255.25 -333.08)"/><path class="cls-5" d="M-2017.56,619.57c-4-2.42-4.84-1.61,4.85,5.65,7,5.22,28.92,22.53,40.73,31.85a13.69,13.69,0,0,0,0-3.1l-.42-.5C-1981.24,647-2013.52,622-2017.56,619.57Z" transform="translate(2255.25 -333.08)"/><path class="cls-6" d="M-1932.72,613.75c2.43,9.85-6.36,20.82-15.93,24.84,4.39.68,11.51.93,16.24-3.28C-1925.51,629.18-1929.53,615.77-1932.72,613.75Z" transform="translate(2255.25 -333.08)"/><path class="cls-6" d="M-1952.58,637.73l.1,0-.91-.69-.45.3c-.29,9.34-10.29,14.73-20.33,13.77l-1,.69,3.24,2s8.87,2.42,15.33-2.43S-1952.58,637.73-1952.58,637.73Z" transform="translate(2255.25 -333.08)"/><path class="cls-6" d="M-1920,577.31c8.33,6.57-1.1,26.52-18.63,22.71,4.39,2,9.42,4.28,13.5,7.85,6.45,5.65,17.75,4,22.6-2.42s-1.62-14.53-6.46-20.18C-1911.6,582.23-1915.61,579.67-1920,577.31Z" transform="translate(2255.25 -333.08)"/><path class="cls-5" d="M-1971.95,583.66l.17.11c-5.14-5.87-8.72-15.11-9.86-16.25-1.61-1.62.65,13.62,6.78,18.11h0C-1976.71,583.27-1974,582.27-1971.95,583.66Z" transform="translate(2255.25 -333.08)"/><path class="cls-6" d="M-1981.64,666c8.41-.6,9.67-7,9.76-10.25l-7-4.09c2,9.06-7.61,13.53-20.14,10.91A30.78,30.78,0,0,0-1981.64,666Z" transform="translate(2255.25 -333.08)"/><path class="cls-7" d="M-1755.65,451.7s-123.08,31.88-139.23,38.33-23.4,7.27-29.86,8.07-9.68,0-16.14-1.61-24.21-3.23-33.09-3.23-17.76-6.45-29.06-4.84-18.56,10.49-24.21,15.33-21.79,12.92-25,18.57-.81,16.95-1.61,25-4.85,16.95-2.43,24.21,19.37,12.91,25.83,1.62a238.26,238.26,0,0,0,13.72-29.87c.81-2.42-.81-5.65-.81-5.65s.81,4,4,1.62,8.88-4,8.07-5.65c0,0-.81,1.61,2.42,1.61s5.65-4,5.65-4-4,4,0,5.65,12.92,5.65,25,11.29,27.44,16.15,27.44,16.15,20.18-2.42,26.64-7.27,9.68-11.3,15.33-15.33,147.7-44.39,147.7-44.39Z" transform="translate(2255.25 -333.08)"/><path class="cls-7" d="M-1997.38,661.14c-8.07,10.49-12.1,15.33-25,13.72s-15.33-13.72-12.1-20.18l15.33-30.67s11.3-8.07,14.53,4.85-.81,28.24-.81,28.24Z" transform="translate(2255.25 -333.08)"/><path class="cls-8" d="M-2019.17,624l-15.33,30.67a14.42,14.42,0,0,0,2.14,15.26c13.45,7.18,24.49-3.15,26.91-12.84,0,0,4-15.33.81-28.24S-2019.17,624-2019.17,624Z" transform="translate(2255.25 -333.08)"/><path class="cls-9" d="M-2035.7,662.13c-10.1,4.66-19,2.24-23.82-3.41s-3.23-9.69-2.43-12.92,20.18-30.67,24.22-34.7,10.49-6.46,17.75-1.62,2.42,15.34.81,18.57S-2035.7,662.13-2035.7,662.13Z" transform="translate(2255.25 -333.08)"/><path class="cls-8" d="M-2061.95,646.61c-7.26,7.27-22.59,5.65-29.05-5.65s5.65-22.6,8.88-28.25,19.37-25,34.7-20.17,6.13,22.84,6.13,22.84Z" transform="translate(2255.25 -333.08)"/><path class="cls-7" d="M-2116,600.61c5.65-9.69,26.63,7.26,28.25,12.91s-8.07,17-19.37,16.14-10.5-12.1-10.5-17.75A47.06,47.06,0,0,1-2116,600.61Z" transform="translate(2255.25 -333.08)"/><path class="cls-2" d="M-2087.77,613.52c-1.62-5.65-22.6-22.6-28.25-12.91,0,0-.44,1.55-.86,3.83.52,7,5.1,14.73,12.16,14.73,5.75,0,7.45,1.51,10.67,6.09C-2089.53,621.66-2086.87,616.7-2087.77,613.52Z" transform="translate(2255.25 -333.08)"/><path class="cls-3" d="M-1997.78,531.6c3.23-4.84.81-7.26-.81-12.11s5.65-12.91,8.88-25.82h0a4,4,0,0,0-3-4.78,29.47,29.47,0,0,0-10.29-.47c-11.3,1.61-18.56,10.49-24.21,15.33s-21.79,12.92-25,18.57a12.42,12.42,0,0,0-1.31,3.91c8-15.84,29.16-.28,36.42,12.63l.2.36a2.58,2.58,0,0,1-.08-.26c.55.91,1.6,1.74,3.51.31,2.76-2.07,7.28-3.56,8-4.95.15.43.71.91,2.46.91s3.46-1.34,4.47-2.48c0,0,0,.1-.08.14Z" transform="translate(2255.25 -333.08)"/><path class="cls-10" d="M-1910.21,523.93c3.82,9.33,3.63,14.43,5.51,19.15.56-.48,1.14-1,1.75-1.39,5.65-4,147.7-44.39,147.7-44.39l-.4-45.6s-123.08,31.88-139.23,38.33-23.4,7.27-29.86,8.07a31.05,31.05,0,0,1-12.16-.64h0C-1909.4,503.75-1917.47,506.18-1910.21,523.93Z" transform="translate(2255.25 -333.08)"/><path class="cls-11" d="M-2024.82,642.58c0,4.84,8.07,4,8.07,4l8.07-12.11s-3.23-4-6.45-4.84-4.85,0-4.85,0Z" transform="translate(2255.25 -333.08)"/><path class="cls-11" d="M-2024.82,614.33c-4.56-3.43-7.26-4-7.26-4s-10.5,10.49-6.46,16.14,12.91-.8,14.53-3.22,3.23-4.85,3.23-4.85S-2021.59,616.75-2024.82,614.33Z" transform="translate(2255.25 -333.08)"/><path class="cls-11" d="M-2049,599.8a65.74,65.74,0,0,0-11.3-2.42s-8.88,9.68-8.07,15.33,11.41,11.93,17,6A118,118,0,0,0-2041,605.45,19.49,19.49,0,0,0-2049,599.8Z" transform="translate(2255.25 -333.08)"/><path class="cls-11" d="M-2104.72,619.17c-5.36,0-9.28-4.43-11.1-9.64-.81,2.56-1,5.28.61,7.22,3.34,4,9.44,6.35,11.9,2.46C-2103.75,619.19-2104.22,619.17-2104.72,619.17Z" transform="translate(2255.25 -333.08)"/><path class="cls-11" d="M-2056.7,571.15c8.07,4,17.76-6.46,17.76-6.46s6.45-17-5.65-17.76S-2056.7,571.15-2056.7,571.15Z" transform="translate(2255.25 -333.08)"/><g class="cls-12"><path class="cls-13" d="M-1997.38,535c16.73-6.93,29.63-30.32,26.41-36" transform="translate(2255.25 -333.08)"/><path class="cls-13" d="M-1991.35,499c-.59,13.71-9.46,12.91-7,20.16s2.39,11.66-.42,15.11" transform="translate(2255.25 -333.08)"/><path class="cls-13" d="M-1918.55,532.1c-1.62,16.13-29.3,28.29-29.3,28.29" transform="translate(2255.25 -333.08)"/><path class="cls-13" d="M-2021.38,527.66a12.73,12.73,0,0,1,8.07,11.29" transform="translate(2255.25 -333.08)"/><path class="cls-13" d="M-2022.59,521.61a12.94,12.94,0,0,1,11.29,11.29" transform="translate(2255.25 -333.08)"/><path class="cls-13" d="M-1960.87,495.57c10.87,5.88,6,29.27-13.33,40.56" transform="translate(2255.25 -333.08)"/></g><path class="cls-14" d="M-1985.08,590.87c5,5.53-2.24,7.51-13.31,8.16s-14.49-11.87-7.26-12.9C-1994.36,584.52-1989.5,585.92-1985.08,590.87Z" transform="translate(2255.25 -333.08)"/><path class="cls-14" d="M-1971.6,562.1c3.91.65,1.3-3.26-5.21-9.77s-17-1.37-16.94,1.95c.2,6.85,10.68,5.24,14.71,6.85A14.66,14.66,0,0,0-1971.6,562.1Z" transform="translate(2255.25 -333.08)"/><rect class="cls-15" x="-1876.19" y="469.7" width="28" height="116" transform="translate(2037.48 -826.21) rotate(-16.01)"/><polygon class="cls-16" points="500 223 421.68 243.62 391.34 137.89 500 107 500 223"/><rect class="cls-15" x="-2165.53" y="500.8" width="28" height="116" transform="translate(-2045.8 792.21) rotate(179.8)"/><polygon class="cls-17" points="0 171 89.52 170.77 89.92 280.77 0 281.25 0 171"/></svg>