<svg id="Layer_1" data-name="Layer 1" xmlns="http://www.w3.org/2000/svg" viewBox="0 0 493.77 446.15"><defs><style>.cls-1{fill:#464949;}.cls-2{fill:#fff;}.cls-3{fill:#9cb3c1;}.cls-4{opacity:0.08;}.cls-5{opacity:0.22;}.cls-6{fill:#8cad81;}</style></defs><title>secure</title><path class="cls-1" d="M-1949.1,685.21l-97,85.74a14.27,14.27,0,0,1-18.92,0l-91.18-80.59c-7.7-6.8-15.64-14.33-23.36-22.52A189.56,189.56,0,0,1-2230,556.71l-15.27-151.52a21.28,21.28,0,0,1,14.49-25.51l6.23.44a225.53,225.53,0,0,0,153.42-46.37l5-3.88a34.73,34.73,0,0,1,20.92.26l9.26,7.84A193.61,193.61,0,0,0-1911,383.77l28.35,0a28.3,28.3,0,0,1,18.49,34.11l-18.38,144.63A191.37,191.37,0,0,1-1940.18,677C-1943,679.77-1946,682.48-1949.1,685.21Z" transform="translate(2245.89 -328.39)"/><path class="cls-2" d="M-1963.84,666.52l-83.46,73.76a12.3,12.3,0,0,1-16.27,0L-2142,671c-6.62-5.85-13.45-12.33-20.1-19.38A163.1,163.1,0,0,1-2205.46,556l-13.14-130.35a18.31,18.31,0,0,1,12.47-21.94l5.36.38a194,194,0,0,0,132-39.89l4.33-3.34a29.81,29.81,0,0,1,18,.23l8,6.74A166.6,166.6,0,0,0-1931,407.21l24.38,0a24.34,24.34,0,0,1,15.91,29.34L-1906.57,561a164.59,164.59,0,0,1-49.59,98.51C-1958.63,661.84-1961.18,664.17-1963.84,666.52Z" transform="translate(2245.89 -328.39)"/><path class="cls-3" d="M-1975.81,655.88l-72.44,64a10.68,10.68,0,0,1-14.13,0l-68.09-60.18c-5.75-5.08-11.67-10.71-17.45-16.82a141.48,141.48,0,0,1-37.62-83l-11.41-113.15a15.88,15.88,0,0,1,10.82-19l4.65.33a168.47,168.47,0,0,0,114.56-34.62l3.76-2.9a25.86,25.86,0,0,1,15.62.19l6.92,5.85a144.55,144.55,0,0,0,93.27,34.21h21.17a21.13,21.13,0,0,1,13.81,25.47l-13.73,108a142.85,142.85,0,0,1-43,85.51C-1971.28,651.82-1973.5,653.84-1975.81,655.88Z" transform="translate(2245.89 -328.39)"/><path class="cls-4" d="M-1940.81,677c-2.87,2.73-5.83,5.44-8.93,8.17l-97,85.74a14.27,14.27,0,0,1-18.92,0l-91.19-80.59c-7.69-6.8-15.63-14.33-23.36-22.52a189.55,189.55,0,0,1-50.39-111.13l-15.28-151.52Z" transform="translate(2245.89 -328.39)"/><polygon class="cls-5" points="461.86 43.67 276.56 179.93 226.71 129.33 179.07 161.2 274.51 236.39 493.77 52.34 461.86 43.67"/><path class="cls-1" d="M-1790.47,361.07l-179.59,132.06a5.26,5.26,0,0,1-6.86-.55l-43.6-44.26a5.25,5.25,0,0,0-6.67-.68l-38,25.43a5.24,5.24,0,0,0-.33,8.49l86.4,68.08a5.26,5.26,0,0,0,6.63-.11l208.29-174.83a5.26,5.26,0,0,0-2-9.1l-19.76-5.37A5.26,5.26,0,0,0-1790.47,361.07Z" transform="translate(2245.89 -328.39)"/><polygon class="cls-6" points="188.77 149.21 222.31 126.78 272.36 177.59 460.04 39.58 474.15 43.42 270.97 213.97 188.77 149.21"/><path class="cls-6" d="M-1974.86,545.9l-86.93-68.49,38.58-25.8,50,50.74L-1786.41,365l20.47,5.56Zm-77.58-68.12,77.47,61,197.43-165.73-7.75-2.11L-1973.81,509.6l-50.13-50.88Z" transform="translate(2245.89 -328.39)"/></svg>