<svg id="Layer_1" data-name="Layer 1" xmlns="http://www.w3.org/2000/svg" viewBox="0 0 585.32 423.22"><defs><style>.cls-1{fill:#f5f5f5;}.cls-2{fill:#e1e1e1;}.cls-3{fill:#fafafa;}.cls-4{fill:#1a2e35;}.cls-5,.cls-8{fill:#fff;}.cls-6{fill:#375a64;}.cls-7{fill:#ff4f5b;}.cls-8,.cls-9{opacity:0.3;}.cls-10{fill:#cd7250;}.cls-11{fill:#ae4f32;}.cls-12{fill:none;stroke:#44555b;stroke-miterlimit:10;}.cls-13{opacity:0.2;}</style></defs><title>user friendly</title><path class="cls-1" d="M-1914.09,499.39v44.1a14.38,14.38,0,0,0,14.45,14.13h158.12a14.43,14.43,0,0,0,14.44-14.44V505.92l19.69-20.69-192.21-.6A14.52,14.52,0,0,0-1914.09,499.39Z" transform="translate(2292.71 -340.16)"/><polygon class="cls-2" points="542.33 171.19 398.85 170.53 398.86 166.12 542.35 166.78 542.33 171.19"/><polygon class="cls-2" points="542.33 185.7 398.85 185.04 398.86 180.63 542.35 181.29 542.33 185.7"/><rect class="cls-2" x="-1780.97" y="509.27" width="4.41" height="56.77" transform="translate(-14.95 -1583.89) rotate(-89.72)"/><path class="cls-1" d="M-2183.58,724.16c22.12-15.45,27.13-44.12,26.26-69.9-.15-4.3.32-8.83-1.72-12.61s-6.82-6.35-10.68-4.54c-3.19,1.5-4.58,5.22-6.37,8.29a25.16,25.16,0,0,1-10.09,9.64c-2.74,1.42-6.13,2.29-8.84.8-3.71-2.05-4.14-7.17-4.12-11.45l.15-23.93c0-4.28,0-8.65-1.29-12.71s-4.27-7.83-8.34-9-9.11,1.21-10,5.39c-.35,1.75,0,3.56-.12,5.33s-.94,3.74-2.63,4.24-3.42-.71-4.7-2c-4.42-4.32-7.41-9.89-10.21-15.43s-5.52-11.2-9.53-15.91-9.55-8.45-15.68-8.79-12.66,3.43-14.21,9.45,2,12.15,5.8,17a95.11,95.11,0,0,0,19.89,19c1.35,1,2.81,2,3.32,3.58.93,2.85-1.77,5.68-4.59,6.62-3.19,1.06-6.65.73-10,1.13s-6.95,1.86-8.22,5c-1.75,4.38,1.91,9,5.51,12a81.67,81.67,0,0,0,24.21,14c3.15,1.15,6.46,2.16,9,4.38s4.07,6,2.54,9.07-5.47,4-8.77,3.37-6.25-2.4-9.39-3.59c-5.88-2.22-13.47-1.81-17.24,3.27-2.47,3.34-2.69,8-1.44,12s3.79,7.41,6.49,10.58c9.42,11.05,21.49,20,35.13,24.69s26.28,6,39.83,1" transform="translate(2292.71 -340.16)"/><path class="cls-2" d="M-2183.24,743.27a187.53,187.53,0,0,0-7-35.27,381.42,381.42,0,0,0-15.22-41.28l-4.54-10.61c-1.5-3.48-3-6.94-4.65-10.22a192.65,192.65,0,0,0-10.64-18.34c-3.67-5.67-7.36-10.91-10.84-15.79s-6.83-9.36-10.05-13.32a153.29,153.29,0,0,0-16.57-17.51c-2.11-1.91-3.8-3.33-5-4.28l-1.32-1.08a4,4,0,0,0-.46-.34,3,3,0,0,0,.41.41l1.27,1.13c1.12,1,2.78,2.45,4.85,4.39a161.25,161.25,0,0,1,16.35,17.64c3.18,4,6.49,8.46,9.95,13.34s7.12,10.15,10.76,15.81a193,193,0,0,1,10.56,18.29c1.65,3.27,3.12,6.69,4.62,10.18l4.54,10.61a392.56,392.56,0,0,1,15.25,41.18,191.38,191.38,0,0,1,7.13,35.11" transform="translate(2292.71 -340.16)"/><path class="cls-2" d="M-2214.87,645.86a9.29,9.29,0,0,0,.42-1.83c.22-1.18.49-2.9.79-5,.61-4.26,1.24-10.18,1.92-16.7s1.39-12.41,2.06-16.65c.33-2.12.61-3.83.82-5a9.33,9.33,0,0,0,.24-1.86,9.15,9.15,0,0,0-.54,1.79c-.3,1.17-.67,2.87-1.07,5-.81,4.23-1.62,10.13-2.29,16.66l-1.69,16.71c-.21,2-.4,3.7-.54,5.06A8.73,8.73,0,0,0-2214.87,645.86Z" transform="translate(2292.71 -340.16)"/><path class="cls-2" d="M-2269.88,635.57a11.11,11.11,0,0,0,2.19.27c1.41.12,3.46.29,6,.59,5,.54,12,1.53,19.58,3s14.42,3.05,19.33,4.35c2.45.63,4.43,1.2,5.79,1.58a12.12,12.12,0,0,0,2.15.53,10.39,10.39,0,0,0-2.05-.83c-1.35-.47-3.3-1.12-5.75-1.83-4.87-1.44-11.7-3.13-19.33-4.59a194.7,194.7,0,0,0-19.66-2.74c-2.54-.23-4.59-.31-6-.34A13.11,13.11,0,0,0-2269.88,635.57Z" transform="translate(2292.71 -340.16)"/><path class="cls-2" d="M-2190.9,707a3.15,3.15,0,0,0,.37-.67c.26-.54.57-1.2.94-2,.81-1.73,1.92-4.27,3.24-7.42,2.66-6.3,6-15.13,9.66-24.91s6.92-18.63,9.44-25c1.23-3.08,2.25-5.62,3-7.51l.8-2a2.4,2.4,0,0,0,.23-.73,3.15,3.15,0,0,0-.37.67c-.26.54-.57,1.19-.94,2-.81,1.73-1.92,4.27-3.24,7.42-2.66,6.3-6,15.12-9.66,24.91s-6.92,18.62-9.44,25c-1.24,3.09-2.25,5.63-3,7.51-.32.82-.58,1.5-.8,2A2.5,2.5,0,0,0-2190.9,707Z" transform="translate(2292.71 -340.16)"/><path class="cls-2" d="M-2264,683.43a3.08,3.08,0,0,0,.73.3l2.12.71,7.83,2.54c6.61,2.14,15.7,5.2,25.75,8.61s19.18,6.38,25.83,8.39c3.33,1,6,1.79,7.91,2.3l2.17.56a2.44,2.44,0,0,0,.77.15,3.06,3.06,0,0,0-.73-.3l-2.12-.71-7.83-2.54c-6.61-2.14-15.71-5.21-25.75-8.61s-19.18-6.39-25.84-8.39c-3.33-1-6-1.79-7.9-2.3l-2.17-.57A2.61,2.61,0,0,0-2264,683.43Z" transform="translate(2292.71 -340.16)"/><path class="cls-2" d="M-2132.56,453.77v34.16a11.19,11.19,0,0,1-11.19,11.2h-122.52a11.19,11.19,0,0,1-11.19-11.2V459.06l-15.25-16,148.93-.47A11.19,11.19,0,0,1-2132.56,453.77Z" transform="translate(2292.71 -340.16)"/><polygon class="cls-3" points="33.31 123.12 144.49 122.6 144.48 119.19 33.3 119.7 33.31 123.12"/><polygon class="cls-3" points="33.31 134.36 144.49 133.84 144.48 130.43 33.3 130.94 33.31 134.36"/><rect class="cls-3" x="-2259.41" y="481.95" width="43.99" height="3.42" transform="translate(2290.31 -351.16) rotate(-0.28)"/><rect class="cls-4" x="-2136.44" y="449.12" width="258.1" height="370.4" rx="11.55" transform="translate(-349 -1713.23) rotate(-90)"/><rect class="cls-5" x="-2133.5" y="479.66" width="241.83" height="309.33" transform="translate(-354.2 -1718.42) rotate(-90)"/><circle class="cls-6" cx="-1840.8" cy="634.32" r="9.9" transform="translate(255.56 -1642.94) rotate(-76.77)"/><rect class="cls-6" x="-2218.75" y="632.28" width="77.74" height="4.09" rx="1.22" transform="translate(-521.49 -1885.71) rotate(-90)"/><circle class="cls-7" cx="-2100.38" cy="641.59" r="24.99" transform="translate(811.22 -1805.75) rotate(-56.65)"/><circle class="cls-8" cx="-2100.38" cy="641.59" r="24.99" transform="translate(811.22 -1805.75) rotate(-56.65)"/><path class="cls-4" d="M-2109,635.29c.94-.07,1.8,1,1.91,2.34s-.56,2.54-1.51,2.62-1.8-1-1.91-2.34S-2109.95,635.37-2109,635.29Z" transform="translate(2292.71 -340.16)"/><path class="cls-4" d="M-2093.12,635c-1,0-1.76,1-1.82,2.41s.67,2.51,1.62,2.55,1.77-1,1.82-2.41S-2092.17,635-2093.12,635Z" transform="translate(2292.71 -340.16)"/><path class="cls-4" d="M-2090.39,646.54c0,.29-4.66.53-10.4.53s-10.41-.24-10.41-.53,4.66-.53,10.41-.53S-2090.39,646.25-2090.39,646.54Z" transform="translate(2292.71 -340.16)"/><path class="cls-4" d="M-2107.09,632.42c-.07.3-1.25.29-2.64.52s-2.52.58-2.67.31.89-1.12,2.51-1.37S-2107,632.15-2107.09,632.42Z" transform="translate(2292.71 -340.16)"/><path class="cls-4" d="M-2088.61,633.63c-.18.24-1.26-.32-2.65-.74s-2.59-.57-2.62-.87,1.33-.64,2.93-.15S-2088.42,633.42-2088.61,633.63Z" transform="translate(2292.71 -340.16)"/><circle class="cls-7" cx="-1919.47" cy="639.52" r="25.9" transform="translate(43.56 -1696.8) rotate(-80.95)"/><circle class="cls-9" cx="-1919.47" cy="639.52" r="25.9" transform="translate(43.56 -1696.8) rotate(-80.95)"/><path class="cls-4" d="M-1928.41,633c1-.08,1.87,1,2,2.42s-.58,2.63-1.56,2.71-1.88-1-2-2.42S-1929.39,633.07-1928.41,633Z" transform="translate(2292.71 -340.16)"/><path class="cls-4" d="M-1911.94,632.65c-1,0-1.83,1.08-1.89,2.5s.7,2.61,1.68,2.65,1.83-1.08,1.89-2.5S-1910.95,632.69-1911.94,632.65Z" transform="translate(2292.71 -340.16)"/><path class="cls-4" d="M-1909.11,644.65c-.11.14-1.19-.62-3-1.58a16.92,16.92,0,0,0-7.71-1.9,19.23,19.23,0,0,0-7.73,2c-1.88.91-3,1.61-3.09,1.47s.89-1,2.74-2.14a16.79,16.79,0,0,1,8.06-2.41,15.12,15.12,0,0,1,8.1,2.32C-1909.95,643.58-1909,644.56-1909.11,644.65Z" transform="translate(2292.71 -340.16)"/><path class="cls-4" d="M-1926.43,630c.09.11-.08.43-.51.81a4.27,4.27,0,0,1-2,.95,3.9,3.9,0,0,1-2.24-.25c-.53-.25-.77-.53-.71-.66s1.35.13,2.77-.14S-1926.62,629.77-1926.43,630Z" transform="translate(2292.71 -340.16)"/><path class="cls-4" d="M-1907.26,631.27c0,.13-.24.39-.82.57a3.81,3.81,0,0,1-2.32-.09,4.5,4.5,0,0,1-1.91-1.27c-.38-.44-.52-.79-.42-.89s1.27.66,2.67,1.15S-1907.36,631-1907.26,631.27Z" transform="translate(2292.71 -340.16)"/><polygon class="cls-2" points="323.61 371.26 329.61 368.28 335.46 371.54 334.48 364.92 339.39 360.36 332.79 359.23 329.97 353.16 326.86 359.09 320.21 359.9 324.89 364.69 323.61 371.26"/><polygon class="cls-7" points="299.12 371.26 305.13 368.28 310.98 371.54 310 364.92 314.91 360.36 308.31 359.23 305.49 353.16 302.38 359.09 295.73 359.9 300.41 364.69 299.12 371.26"/><polygon class="cls-7" points="274.64 371.26 280.64 368.28 286.5 371.54 285.52 364.92 290.43 360.36 283.83 359.23 281 353.16 277.9 359.09 271.25 359.9 275.93 364.69 274.64 371.26"/><polygon class="cls-7" points="250.16 371.26 256.17 368.28 262.02 371.54 261.04 364.92 265.95 360.36 259.35 359.23 256.52 353.16 253.42 359.09 246.77 359.9 251.45 364.69 250.16 371.26"/><polygon class="cls-7" points="225.68 371.26 231.69 368.28 237.54 371.54 236.56 364.92 241.47 360.36 234.87 359.23 232.04 353.16 228.94 359.09 222.29 359.9 226.97 364.69 225.68 371.26"/><path class="cls-4" d="M-1953,564.07c0,.14-26.86.26-60,.26s-60-.12-60-.26,26.85-.27,60-.27S-1953,563.92-1953,564.07Z" transform="translate(2292.71 -340.16)"/><path class="cls-4" d="M-1982.54,556.86c0,.15-13.26.27-29.62.27s-29.63-.12-29.63-.27,13.26-.27,29.63-.27S-1982.54,556.71-1982.54,556.86Z" transform="translate(2292.71 -340.16)"/><circle class="cls-7" cx="-2007.91" cy="633.55" r="34.12" transform="translate(297.43 -1812.06) rotate(-72.14)"/><path class="cls-4" d="M-2019.68,625c1.29-.1,2.46,1.32,2.62,3.19s-.77,3.47-2.06,3.57-2.47-1.32-2.63-3.18S-2021,625.06-2019.68,625Z" transform="translate(2292.71 -340.16)"/><path class="cls-4" d="M-1998,624.51c-1.29-.06-2.41,1.42-2.49,3.29s.92,3.43,2.21,3.48,2.41-1.42,2.49-3.29S-1996.69,624.56-1998,624.51Z" transform="translate(2292.71 -340.16)"/><path class="cls-4" d="M-1994.27,635.71s-.22.4-.77,1a18.82,18.82,0,0,1-2.56,2.3,18.22,18.22,0,0,1-4.51,2.47,15.91,15.91,0,0,1-6.26,1,18.5,18.5,0,0,1-6.15-1.41,27,27,0,0,1-4.53-2.38c-2.42-1.62-3.7-2.87-3.63-3s1.55.9,4,2.32a32.92,32.92,0,0,0,4.49,2.1,19.12,19.12,0,0,0,5.85,1.27,16.29,16.29,0,0,0,5.88-.84,19.91,19.91,0,0,0,4.41-2.17c1.16-.8,2.1-1.47,2.71-2S-1994.32,635.65-1994.27,635.71Z" transform="translate(2292.71 -340.16)"/><path class="cls-4" d="M-2018.14,617.28c-.06.3-1.69.19-3.63.51s-3.46.89-3.61.62,1.28-1.35,3.44-1.68S-2018.07,617-2018.14,617.28Z" transform="translate(2292.71 -340.16)"/><path class="cls-4" d="M-1990.67,618.87c-.19.25-1.63-.62-3.57-1.2s-3.61-.7-3.63-1,1.8-.67,3.94,0S-1990.48,618.67-1990.67,618.87Z" transform="translate(2292.71 -340.16)"/><path class="cls-4" d="M-2022.12,633.25c.13,0,.35.33.38,1a3.87,3.87,0,0,1-.74,2.35,3.86,3.86,0,0,1-2,1.48c-.62.18-1,.09-1,0,0-.3,1.26-.73,2.16-2S-2022.42,633.3-2022.12,633.25Z" transform="translate(2292.71 -340.16)"/><path class="cls-4" d="M-1991.38,636.39c0,.13-.26.34-.79.39a2.94,2.94,0,0,1-1.94-.61,3,3,0,0,1-1.15-1.69c-.11-.52,0-.85.14-.86.3,0,.64,1,1.64,1.69S-1991.45,636.1-1991.38,636.39Z" transform="translate(2292.71 -340.16)"/><path class="cls-7" d="M-1966.19,633.25s0-.23-.06-.68l-.13-2c0-.44,0-.93-.08-1.48s-.18-1.13-.27-1.77-.21-1.33-.33-2.06a23.18,23.18,0,0,0-.55-2.31,40.39,40.39,0,0,0-4.7-11.25,42.13,42.13,0,0,0-10.73-12l-1.83-1.36c-.64-.42-1.31-.81-2-1.22s-1.33-.86-2.06-1.19l-2.19-1.05-1.11-.53-1.17-.42-2.38-.87c-.8-.26-1.65-.43-2.48-.66a21.45,21.45,0,0,0-2.55-.58,39,39,0,0,0-5.33-.62c-.91,0-1.83-.12-2.75-.1l-2.79.14c-.47,0-.94,0-1.41.09l-1.41.22c-.93.16-1.89.27-2.83.46a44.38,44.38,0,0,0-5.62,1.65,44.41,44.41,0,0,0-5.5,2.42c-.89.48-1.74,1-2.62,1.56-.43.28-.89.51-1.3.83l-1.24.93a44.63,44.63,0,0,0-4.78,4.06l-2.15,2.36-.53.59-.49.64-1,1.29-1,1.3-.85,1.38-.85,1.4-.42.7-.36.73c-.48,1-1,2-1.43,3l-1.15,3.12a45,45,0,0,0-2.17,13.29,45.1,45.1,0,0,0,2.17,13.29c.38,1.05.77,2.09,1.14,3.12l1.44,3,.36.74.42.7.85,1.4.85,1.38,1,1.3,1,1.29.48.64.54.6,2.14,2.35a48.09,48.09,0,0,0,4.78,4.07l1.24.93c.42.31.88.54,1.31.82.88.52,1.73,1.09,2.62,1.57a42.89,42.89,0,0,0,5.5,2.41,42.8,42.8,0,0,0,5.62,1.65c.94.2,1.9.31,2.83.46l1.41.22c.47.06.94.06,1.41.09l2.79.15c.92,0,1.84-.08,2.75-.11a38.8,38.8,0,0,0,5.33-.62,21.43,21.43,0,0,0,2.55-.57c.84-.23,1.68-.4,2.49-.67l2.37-.86,1.17-.43,1.11-.53,2.19-1.05c.73-.33,1.38-.8,2.06-1.19s1.34-.8,2-1.22l1.83-1.35a42.34,42.34,0,0,0,10.74-12,40.71,40.71,0,0,0,4.69-11.24,23.35,23.35,0,0,0,.55-2.32c.12-.73.23-1.42.33-2.06s.21-1.23.27-1.77.06-1,.08-1.48c.06-.87.1-1.54.13-2s.06-.69.06-.69,0,.23,0,.69,0,1.14-.08,2c0,.44,0,.94-.06,1.48s-.16,1.14-.24,1.78-.2,1.34-.31,2.08a23.85,23.85,0,0,1-.53,2.33A40.21,40.21,0,0,1-1972,655a42.25,42.25,0,0,1-10.76,12.12l-1.84,1.38c-.64.43-1.32.82-2,1.24s-1.33.87-2.07,1.21l-2.21,1.07-1.12.53-1.18.44-2.39.88c-.82.27-1.67.45-2.51.68a24.17,24.17,0,0,1-2.58.59,41.13,41.13,0,0,1-5.39.64c-.92,0-1.84.12-2.77.11l-2.83-.14c-.47,0-1,0-1.42-.09l-1.42-.22c-1-.15-1.92-.26-2.87-.46a44.22,44.22,0,0,1-5.69-1.65,43.86,43.86,0,0,1-5.56-2.44c-.91-.49-1.77-1.05-2.66-1.58-.44-.28-.91-.52-1.32-.83l-1.26-.94a49.18,49.18,0,0,1-4.84-4.11l-2.17-2.39-.55-.6-.49-.64-1-1.31-1-1.31-.86-1.41-.86-1.41-.43-.71-.36-.74c-.48-1-1-2-1.45-3s-.77-2.1-1.16-3.16a45.6,45.6,0,0,1-2.2-13.46,45.54,45.54,0,0,1,2.2-13.46l1.16-3.16,1.45-3,.37-.74.43-.71.86-1.41.86-1.41,1-1.31,1-1.3.5-.65.54-.6,2.17-2.39a47.74,47.74,0,0,1,4.84-4.1l1.26-.94c.42-.32.88-.55,1.32-.83.89-.53,1.75-1.1,2.66-1.59a45.26,45.26,0,0,1,5.56-2.43,45.93,45.93,0,0,1,5.69-1.66c1-.19,1.92-.3,2.87-.46l1.42-.21c.47-.07.95-.06,1.42-.09l2.82-.14c.94,0,1.86.08,2.78.11a38,38,0,0,1,5.39.64,20,20,0,0,1,2.57.59c.85.23,1.7.41,2.51.68l2.4.88,1.18.43,1.12.54,2.21,1.07a23.29,23.29,0,0,1,2.07,1.2c.67.42,1.35.81,2,1.24l1.84,1.38A42.25,42.25,0,0,1-1972,611.53a40.14,40.14,0,0,1,4.64,11.35,23.69,23.69,0,0,1,.53,2.32c.11.74.21,1.44.3,2.08s.2,1.23.25,1.78,0,1,.06,1.49c0,.87.06,1.54.08,2S-1966.19,633.25-1966.19,633.25Z" transform="translate(2292.71 -340.16)"/><rect class="cls-2" x="125.46" y="173.25" width="309.33" height="15.43"/><path class="cls-5" d="M-2157.27,520.7a2.1,2.1,0,0,1-2.09,2.09,2.1,2.1,0,0,1-2.09-2.09,2.1,2.1,0,0,1,2.09-2.09A2.1,2.1,0,0,1-2157.27,520.7Z" transform="translate(2292.71 -340.16)"/><path class="cls-5" d="M-2150.33,520.7a2.09,2.09,0,0,1-2.09,2.09,2.1,2.1,0,0,1-2.09-2.09,2.1,2.1,0,0,1,2.09-2.09A2.09,2.09,0,0,1-2150.33,520.7Z" transform="translate(2292.71 -340.16)"/><path class="cls-5" d="M-2143.38,520.7a2.1,2.1,0,0,1-2.09,2.09,2.09,2.09,0,0,1-2.09-2.09,2.09,2.09,0,0,1,2.09-2.09A2.1,2.1,0,0,1-2143.38,520.7Z" transform="translate(2292.71 -340.16)"/><path class="cls-2" d="M-1892,576.24c0,.14-53.68.26-119.87.26s-119.88-.12-119.88-.26,53.66-.27,119.88-.27S-1892,576.09-1892,576.24Z" transform="translate(2292.71 -340.16)"/><path class="cls-2" d="M-1892,582.18c0,.15-53.68.26-119.87.26s-119.88-.11-119.88-.26,53.66-.27,119.88-.27S-1892,582-1892,582.18Z" transform="translate(2292.71 -340.16)"/><path class="cls-6" d="M-2049.34,506.9s-2.11-4.79-2.51-5.84c-1.07-2.87-8-22.1-6.33-25,7.67-13.46,13.61-23,28.75-23l26.73-.18s25.32-5.15,43.17,52.44Z" transform="translate(2292.71 -340.16)"/><path class="cls-6" d="M-2105.72,511.73l35-7.55,41.15-21.64.15-29.53c-6.17-1.7-18,2.58-39.25,13.42l-31.59,16.31a18.7,18.7,0,0,0-5.45,29Z" transform="translate(2292.71 -340.16)"/><path class="cls-10" d="M-2027,568.88c-.51-1.66-.16-2.72,2.26-1.91,5.34,1.79,10.11,1.21,11.27.17s.1-3-1.64-2.85a20.67,20.67,0,0,1-5.62-.78,13.74,13.74,0,0,1-4.19-1.77c-1.12-.71-2.08-1.37-2.93-2,0,0-4.93-3.55-6.47-6.42l-16.89,7.25,2.72,8.46a9,9,0,0,0,5.71,6.55c4.83,1.57,12.51,1,12.51,1,1.41-.92,6.84,6.94,8.48,9.72s3.61,3.12,4.25,1.42c.43-1.16-4.4-9.77-6.09-12.48a33,33,0,0,1-3.37-6.35" transform="translate(2292.71 -340.16)"/><path class="cls-11" d="M-2038.4,576.6c0,.06-.42,0-1-.24a4.3,4.3,0,0,1-1.76-1.73,4.31,4.31,0,0,1-.55-2.41c.06-.64.26-1,.32-1a7.26,7.26,0,0,0,.7,3.12A7.36,7.36,0,0,0-2038.4,576.6Z" transform="translate(2292.71 -340.16)"/><path class="cls-11" d="M-2033.06,576.8c0,.06-.4,0-.94-.27a4.19,4.19,0,0,1-1.65-1.69,4.29,4.29,0,0,1-.52-2.31c.06-.61.23-.95.29-.93a8.33,8.33,0,0,0,.7,3A8.17,8.17,0,0,0-2033.06,576.8Z" transform="translate(2292.71 -340.16)"/><path class="cls-6" d="M-2106.72,510.58s53.62,61.62,53.55,60.6,24-19,24-19l-52.57-62.61Z" transform="translate(2292.71 -340.16)"/><path class="cls-4" d="M-2074.2,498.47a2.77,2.77,0,0,1,.38.37l1,1.11,3.6,4.16c3,3.53,7.17,8.42,11.73,13.85s8.67,10.37,11.62,14l3.47,4.27.93,1.18c.2.27.31.42.29.43s-.14-.11-.37-.36l-1-1.11-3.61-4.16c-3-3.53-7.17-8.43-11.73-13.86s-8.67-10.37-11.62-14l-3.47-4.27-.92-1.17A2.43,2.43,0,0,1-2074.2,498.47Z" transform="translate(2292.71 -340.16)"/><path class="cls-4" d="M-1979.35,505.57a18.1,18.1,0,0,0,.64-3.95,12.21,12.21,0,0,0-.69-4.23,12.24,12.24,0,0,0-2.82-4.41c-1.3-1.37-2.69-2.55-3.82-3.79a11.54,11.54,0,0,1-2.4-3.74,6.48,6.48,0,0,1-.44-3,2.84,2.84,0,0,1,.28-1.07,7.52,7.52,0,0,0,.51,3.9,11.88,11.88,0,0,0,2.41,3.55c1.12,1.19,2.52,2.35,3.85,3.75a12.41,12.41,0,0,1,2.89,4.62,11.87,11.87,0,0,1,.61,4.41,10.48,10.48,0,0,1-.57,2.94A3.55,3.55,0,0,1-1979.35,505.57Z" transform="translate(2292.71 -340.16)"/><path class="cls-4" d="M-2051.67,458.16a4.53,4.53,0,0,1,.78-.37,22.74,22.74,0,0,1,2.32-.85,20,20,0,0,1,3.84-.78,13.06,13.06,0,0,1,5.18.48,12.07,12.07,0,0,1,5.29,3.4,14.15,14.15,0,0,1,3.18,6.49,24.66,24.66,0,0,1,.51,8,17.38,17.38,0,0,1-3,8,22.14,22.14,0,0,1-6.41,5.69c-2.35,1.48-4.71,2.69-7,3.87l-11.91,6.25-8.05,4.17-2.2,1.11a4.07,4.07,0,0,1-.78.35,6.53,6.53,0,0,1,.74-.45l2.15-1.19,8-4.33,11.84-6.34c2.23-1.19,4.6-2.42,6.91-3.88a21.76,21.76,0,0,0,6.26-5.56,16.79,16.79,0,0,0,2.88-7.78,24.63,24.63,0,0,0-.47-7.81,13.62,13.62,0,0,0-3-6.29,11.61,11.61,0,0,0-5.08-3.34,13.15,13.15,0,0,0-5-.55,21.49,21.49,0,0,0-3.81.69c-1,.29-1.81.56-2.34.75A7,7,0,0,1-2051.67,458.16Z" transform="translate(2292.71 -340.16)"/><path class="cls-4" d="M-2068.3,504.12c-.18.05-.62-3.53-3-7.15s-5.41-5.51-5.29-5.65a6.87,6.87,0,0,1,2,1.22,17.18,17.18,0,0,1,3.77,4.15,16.86,16.86,0,0,1,2.24,5.13A7.09,7.09,0,0,1-2068.3,504.12Z" transform="translate(2292.71 -340.16)"/><path class="cls-3" d="M-1989.5,497.43a7.28,7.28,0,0,1-1.14.3,11.64,11.64,0,0,1-3.38.15,12.41,12.41,0,0,1-5.08-1.67,11.64,11.64,0,0,1-4.69-5.27,12.43,12.43,0,0,1-.65-8.51,7,7,0,0,1,2.83-3.92,3.44,3.44,0,0,1,2.55-.52,3.68,3.68,0,0,1,2.23,1.48,12.36,12.36,0,0,1,1.2,10.66,12.77,12.77,0,0,1-3,5,11.46,11.46,0,0,1-5.21,2.94,11.89,11.89,0,0,1-11.14-2.59,11.69,11.69,0,0,1-3.35-10.16,10.13,10.13,0,0,1,2-4.7,5,5,0,0,1,2-1.53,3.18,3.18,0,0,1,2.46,0,4.56,4.56,0,0,1,2.61,3.63,7.74,7.74,0,0,1-.81,4.09,19.49,19.49,0,0,1-4.26,5.67,19.85,19.85,0,0,1-4.37,3.09,18.85,18.85,0,0,1-3.12,1.31c-.37.12-.65.18-.85.23a1.09,1.09,0,0,1-.29.06l.28-.11.83-.28a21.26,21.26,0,0,0,3-1.39,20.3,20.3,0,0,0,4.27-3.13,19.4,19.4,0,0,0,4.12-5.61,7.4,7.4,0,0,0,.74-3.88,4.15,4.15,0,0,0-2.37-3.27,2.78,2.78,0,0,0-2.12,0,4.72,4.72,0,0,0-1.81,1.41,9.61,9.61,0,0,0-1.91,4.48,11.21,11.21,0,0,0,3.21,9.7,11.44,11.44,0,0,0,10.65,2.46,11,11,0,0,0,5-2.81,12,12,0,0,0,2.91-4.75,13,13,0,0,0,.59-5.37,11.1,11.1,0,0,0-.55-2.57,7.37,7.37,0,0,0-1.13-2.26,3.2,3.2,0,0,0-1.93-1.31,3,3,0,0,0-2.22.45,6.59,6.59,0,0,0-2.65,3.65,12,12,0,0,0,.57,8.22,11.34,11.34,0,0,0,4.5,5.17,12.38,12.38,0,0,0,5,1.72A13.9,13.9,0,0,0-1989.5,497.43Z" transform="translate(2292.71 -340.16)"/><path class="cls-11" d="M-1985.46,437.43a12.06,12.06,0,0,1-2.39-4.75,3.22,3.22,0,0,1-.06-1.74,1.33,1.33,0,0,1,1.29-1c.6.06,1,.62,1.33,1.13a25.41,25.41,0,0,1,2.46,4.67,3.55,3.55,0,0,1,.29,1.43,1.46,1.46,0,0,1-.69,1.21,1.51,1.51,0,0,1-1.51-.21,4.47,4.47,0,0,1-1-1.21" transform="translate(2292.71 -340.16)"/><path class="cls-11" d="M-1982.89,436.31l-2.64-5.54a4.24,4.24,0,0,1-.55-1.72,1.5,1.5,0,0,1,.85-1.48,1.48,1.48,0,0,1,1.46.38,4.22,4.22,0,0,1,.89,1.31c.41.81.83,1.61,1.25,2.42a7.84,7.84,0,0,1,.82,2.07,2.63,2.63,0,0,1-.41,2.12,1.61,1.61,0,0,1-2,.47" transform="translate(2292.71 -340.16)"/><path class="cls-10" d="M-1994.64,453.45s-3.68-4.78-4-7.29,2.75-7,9.36-8a16.27,16.27,0,0,0,6.8-2.33,2.14,2.14,0,0,0,.77-2.58c-.87-2.11-2.43-6-2.31-6.54.3-1.35,1.18-1.33,3.47,2s4.92,6.73,4.42,8.27-8.57,6.31-8.57,6.31l2.2,3.56Z" transform="translate(2292.71 -340.16)"/><path class="cls-6" d="M-1972.78,502.48l-25.37-49.7,16.33-9.16L-1947.5,498s1.82,3.47,4.34,7.54h-28.76" transform="translate(2292.71 -340.16)"/><path class="cls-4" d="M-1982.08,443.62s-.09.08-.28.2l-.86.52-3.28,1.91-11.8,6.73.09-.31c2.47,5,5.68,10.85,8.91,17.18,4.81,9.35,9,17.92,11.9,24.16,1.46,3.12,2.62,5.66,3.41,7.42l.89,2a5.9,5.9,0,0,1,.28.72,3.34,3.34,0,0,1-.38-.68c-.24-.5-.57-1.16-1-2-.87-1.78-2.08-4.28-3.56-7.34-3-6.19-7.23-14.73-12-24.08-3.22-6.31-6.41-12.15-8.84-17.21l-.09-.2.19-.1,11.89-6.56,3.34-1.8.89-.46Z" transform="translate(2292.71 -340.16)"/><path class="cls-4" d="M-2049.34,506.9a21.58,21.58,0,0,1-2.71-5.62,21.92,21.92,0,0,1-1.52-6.06c.15,0,.85,2.66,2,5.88S-2049.2,506.83-2049.34,506.9Z" transform="translate(2292.71 -340.16)"/><path class="cls-4" d="M-1993.46,433.62a10.31,10.31,0,0,0,11.58-3.17,10.3,10.3,0,0,0,.25-12c5.73-1.45,9.3-8.06,8.14-13.85s-6.34-10.32-12.11-11.57a12.79,12.79,0,0,0-6.7.17,8.22,8.22,0,0,0-5,4.28" transform="translate(2292.71 -340.16)"/><path class="cls-7" d="M-1994.27,420.66c0,.07-.74.2-2,.83a8.64,8.64,0,0,0-3.83,4.13,8.36,8.36,0,0,0-.72,3.82,8.45,8.45,0,0,0,1.36,4.23,7.87,7.87,0,0,0,1.6,1.82,7.94,7.94,0,0,0,2.14,1.33,8.44,8.44,0,0,0,5.2.49,8.56,8.56,0,0,0,4.49-2.7,8,8,0,0,0,1.35-2.13,8.11,8.11,0,0,0,.65-2.33,8.57,8.57,0,0,0-.61-4.4,8.5,8.5,0,0,0-2.32-3.14,8.68,8.68,0,0,0-5.23-2.05c-1.37,0-2.12.17-2.13.1a3.49,3.49,0,0,1,.54-.14,6.58,6.58,0,0,1,1.59-.17,8.67,8.67,0,0,1,5.47,2,8.71,8.71,0,0,1,2.48,3.25,8.81,8.81,0,0,1,.69,4.64,8.18,8.18,0,0,1-.67,2.47,8.47,8.47,0,0,1-1.42,2.27,8.92,8.92,0,0,1-4.76,2.88,9,9,0,0,1-5.53-.53,8.23,8.23,0,0,1-2.26-1.42,8.32,8.32,0,0,1-1.68-1.94,8.73,8.73,0,0,1-1.39-4.48,8.68,8.68,0,0,1,.82-4,8.62,8.62,0,0,1,4.07-4.15,7.38,7.38,0,0,1,1.51-.55A3.08,3.08,0,0,1-1994.27,420.66Z" transform="translate(2292.71 -340.16)"/><path class="cls-4" d="M-1989.93,404.9a10.1,10.1,0,0,0,9-7.38,10.1,10.1,0,0,0-4.35-10.78,12.54,12.54,0,0,0-4-13.71,12.54,12.54,0,0,0-14.26-.59,16.62,16.62,0,0,0-16.64-8,16.64,16.64,0,0,0-13.32,12.77,16.06,16.06,0,0,0-17.35,3.72,16,16,0,0,0-2.75,17.53,12.61,12.61,0,0,0-11,13.12,12.61,12.61,0,0,0,13.1,11.06,11,11,0,0,0,3.86,11.75,11,11,0,0,0,12.36.27,12,12,0,0,0,11.3,5.47,12,12,0,0,0,9.76-7.89" transform="translate(2292.71 -340.16)"/><path class="cls-10" d="M-2002,451.82c.21-4.87.47-9.28.47-9.28s10.89-1.37,11.36-12.48-.64-36.69-.64-36.69l-20-9.62-21.56,17.36,3.38,51a13.54,13.54,0,0,0,14.13,12.63h0A13.53,13.53,0,0,0-2002,451.82Z" transform="translate(2292.71 -340.16)"/><path class="cls-4" d="M-1991.31,412.4c-.18.18-1.22-.69-2.71-.75s-2.6.7-2.76.5.11-.43.59-.78a3.5,3.5,0,0,1,2.21-.64,3.58,3.58,0,0,1,2.15.83C-1991.38,412-1991.23,412.31-1991.31,412.4Z" transform="translate(2292.71 -340.16)"/><path class="cls-4" d="M-2007.83,412.4c-.18.18-1.22-.69-2.71-.75s-2.59.7-2.75.5.1-.43.58-.78a3.52,3.52,0,0,1,2.21-.64,3.58,3.58,0,0,1,2.15.83C-2007.9,412-2007.75,412.31-2007.83,412.4Z" transform="translate(2292.71 -340.16)"/><path class="cls-4" d="M-2002.23,423.6a8.9,8.9,0,0,1,2.43-.37c.38,0,.74-.09.81-.37a2.33,2.33,0,0,0-.23-1.22q-.52-1.5-1.08-3.15c-1.5-4.48-2.57-8.17-2.41-8.23s1.52,3.53,3,8c.35,1.1.7,2.16,1,3.17a2.57,2.57,0,0,1,.17,1.6,1,1,0,0,1-.64.57,2.22,2.22,0,0,1-.65.07A9.06,9.06,0,0,1-2002.23,423.6Z" transform="translate(2292.71 -340.16)"/><path class="cls-11" d="M-2001.5,442.54a26.48,26.48,0,0,1-14.41-4.72s3.39,8.1,14.22,7.45Z" transform="translate(2292.71 -340.16)"/><path class="cls-4" d="M-2017,384.37a14.68,14.68,0,0,0,.2,17c1.62,2.13,4.06,3.85,6.73,3.76s5.25-2.63,4.68-5.24a5.79,5.79,0,0,0,5.17,7.2,5.79,5.79,0,0,0,5.41-7,10,10,0,0,0,1.25,3.41,3.38,3.38,0,0,0,3.06,1.61c1.68-.22,2.65-2,3-3.66a15.08,15.08,0,0,0-4.28-13.85,18.27,18.27,0,0,0-13.88-4.87,23.19,23.19,0,0,0-13.63,6" transform="translate(2292.71 -340.16)"/><path class="cls-4" d="M-2015.55,388.29a26,26,0,0,1,2.24,10,13.39,13.39,0,0,1-3.6,9.35,9.09,9.09,0,0,1-9.45,2.27,10.52,10.52,0,0,1-1.38,8.87c-1.86,2.47-5.52,3.65-8.23,2.16-2.46-1.34-3.52-4.32-3.86-7.1a23.09,23.09,0,0,1,6.29-18.6,23,23,0,0,1,18.44-6.76" transform="translate(2292.71 -340.16)"/><path class="cls-10" d="M-2029.29,414.76c-1.48-.92-3.5-.16-4.68,1.12a6.56,6.56,0,0,0-.75,7.62,6.57,6.57,0,0,0,7.11,2.86" transform="translate(2292.71 -340.16)"/><path class="cls-11" d="M-2029.63,423c0,.07-.49.14-1.26-.08a3.32,3.32,0,0,1-2.28-2,2.47,2.47,0,0,1,.06-1.78,2.67,2.67,0,0,1,.92-1.09c.68-.45,1.21-.43,1.21-.38s-.44.21-1,.68a2.19,2.19,0,0,0-.71,2.4,3.32,3.32,0,0,0,1.91,1.86C-2030.09,422.88-2029.62,423-2029.63,423Z" transform="translate(2292.71 -340.16)"/><path class="cls-4" d="M-2006.91,407.76c-.14.43-1.77.27-3.7.36s-3.54.34-3.71-.08,1.4-1.44,3.65-1.52S-2006.76,407.36-2006.91,407.76Z" transform="translate(2292.71 -340.16)"/><path class="cls-12" d="M-2011.27,407" transform="translate(2292.71 -340.16)"/><path class="cls-4" d="M-1991.35,407.45c-.17.15-.51.05-.89,0a3.61,3.61,0,0,0-1.36-.09,15.86,15.86,0,0,1-1.71.15c-.49,0-.83-.11-.89-.32s.16-.49.57-.76a4.23,4.23,0,0,1,1.89-.66,2.48,2.48,0,0,1,2.14.75C-1991.22,406.93-1991.2,407.31-1991.35,407.45Z" transform="translate(2292.71 -340.16)"/><path class="cls-11" d="M-2004.82,426.45a3.31,3.31,0,0,1,2.81-.4,2.09,2.09,0,0,1,1.39,2.29,2.28,2.28,0,0,1-.9,1.28,3,3,0,0,1-2.31.57,2.28,2.28,0,0,1-1.73-1.58,1.86,1.86,0,0,1,.91-2.08" transform="translate(2292.71 -340.16)"/><path class="cls-4" d="M-1999.36,427.63c0,.06-.36.31-1.08.47a4.86,4.86,0,0,1-2.81-.28,4.83,4.83,0,0,1-2.18-1.8c-.4-.62-.48-1.07-.42-1.09s.28.35.72.86a5.69,5.69,0,0,0,2.08,1.54,5.56,5.56,0,0,0,2.56.39C-1999.81,427.67-1999.39,427.55-1999.36,427.63Z" transform="translate(2292.71 -340.16)"/><path class="cls-7" d="M-2021.91,432.93c-.07,0,0-.77-.38-2.09a8.62,8.62,0,0,0-3.16-4.65,8.42,8.42,0,0,0-3.57-1.56,8.5,8.5,0,0,0-4.43.39,7.74,7.74,0,0,0-2.13,1.15,7.92,7.92,0,0,0-1.77,1.79,8.36,8.36,0,0,0-1.63,5,8.38,8.38,0,0,0,1.63,5,7.92,7.92,0,0,0,1.77,1.79,8,8,0,0,0,2.13,1.15,8.5,8.5,0,0,0,4.43.39,8.55,8.55,0,0,0,3.57-1.56,8.6,8.6,0,0,0,3.16-4.65c.35-1.32.31-2.1.38-2.09a3.33,3.33,0,0,1,0,.55,6.86,6.86,0,0,1-.19,1.59,8.71,8.71,0,0,1-3.14,4.9,8.85,8.85,0,0,1-3.72,1.69,8.91,8.91,0,0,1-4.68-.36,8.35,8.35,0,0,1-2.26-1.2,8.47,8.47,0,0,1-1.89-1.89,8.94,8.94,0,0,1-1.75-5.28,8.92,8.92,0,0,1,1.75-5.28,8.27,8.27,0,0,1,1.89-1.89,8.35,8.35,0,0,1,2.26-1.2,8.81,8.81,0,0,1,4.68-.36,8.73,8.73,0,0,1,3.72,1.69,8.6,8.6,0,0,1,3.13,4.9,6.39,6.39,0,0,1,.2,1.58A3.42,3.42,0,0,1-2021.91,432.93Z" transform="translate(2292.71 -340.16)"/><path class="cls-6" d="M-1991.36,383.22s.1,0,.28.06a2.55,2.55,0,0,1,.7.45,3.26,3.26,0,0,1,.89,2.92,4.15,4.15,0,0,1-3.46,3.06,8.63,8.63,0,0,1-5.86-1.4l-2.07-1.19,2.27.75a2.42,2.42,0,0,1,1.53,1.75,3.11,3.11,0,0,1-.32,2.39,3.36,3.36,0,0,1-2,1.44,4.76,4.76,0,0,1-2.54-.05,8.72,8.72,0,0,1-4.35-3.77l-1.45-2.11,1.84,1.78a4,4,0,0,1,1,3.78,4.12,4.12,0,0,1-2.22,2.82,5.38,5.38,0,0,1-5.69-.7A6.74,6.74,0,0,1-2015,392a6.59,6.59,0,0,1-.24-1,1.93,1.93,0,0,1,0-.36s.11.49.43,1.31a6.85,6.85,0,0,0,2.19,3,5.08,5.08,0,0,0,5.29.56,3.69,3.69,0,0,0,1.95-2.53,3.54,3.54,0,0,0-.87-3.29l.39-.34a8.2,8.2,0,0,0,4.07,3.54,3.52,3.52,0,0,0,4-1.14c.72-1.18.29-3-.93-3.41l.2-.44a8.38,8.38,0,0,0,5.54,1.42,3.88,3.88,0,0,0,3.25-2.72,3.11,3.11,0,0,0-.72-2.74A3.31,3.31,0,0,0-1991.36,383.22Z" transform="translate(2292.71 -340.16)"/><path class="cls-6" d="M-2018,401.08s0,.07-.13.19a3.29,3.29,0,0,1-.47.5,6.22,6.22,0,0,1-2.23,1.33,6.42,6.42,0,0,1-4.05.07,6.73,6.73,0,0,1-4-3.44l.42-.05a6.64,6.64,0,0,1-5,5.29,6.61,6.61,0,0,1-7.28-3.67,6.68,6.68,0,0,1,1.4-7.31l.35.38a6.68,6.68,0,0,1-4.2,1.52,7.16,7.16,0,0,1-3.95-1.08,6,6,0,0,1-2.37-2.77,7,7,0,0,1-.49-3.1,6.8,6.8,0,0,1,1.64-4.06,4.39,4.39,0,0,1,1.22-1s-.45.34-1.08,1.12a6.93,6.93,0,0,0-1.46,4,6.62,6.62,0,0,0,.53,2.92,5.61,5.61,0,0,0,2.24,2.56,6.85,6.85,0,0,0,3.71,1,6.15,6.15,0,0,0,3.87-1.43l.35.38a6.17,6.17,0,0,0-1.27,6.72,6.1,6.1,0,0,0,6.68,3.39,6.18,6.18,0,0,0,4.67-4.87l.12-.7.3.65a6.44,6.44,0,0,0,3.69,3.28,6.24,6.24,0,0,0,3.85,0,6.83,6.83,0,0,0,2.22-1.19C-2018.23,401.3-2018,401.06-2018,401.08Z" transform="translate(2292.71 -340.16)"/><path class="cls-6" d="M-2037.83,418.87a2.82,2.82,0,0,1-.87.51,5.77,5.77,0,0,1-2.77.43,5.71,5.71,0,0,1-3.81-1.86,6.17,6.17,0,0,1-1.51-5.13l.46.2a10.23,10.23,0,0,1-3.76,3.07,8.08,8.08,0,0,1-3.64.78,7.56,7.56,0,0,1-3.35-.92,5.93,5.93,0,0,1-3.19-4.73,5.69,5.69,0,0,1,1-3.76,4.47,4.47,0,0,1,.75-.76c.2-.14.3-.21.32-.2a12.57,12.57,0,0,0-.9,1.08,5.64,5.64,0,0,0-.82,3.6,5.57,5.57,0,0,0,3,4.34,7.25,7.25,0,0,0,6.54.09,9.87,9.87,0,0,0,3.57-2.9l.65-.83-.19,1a5.77,5.77,0,0,0,1.33,4.74,5.48,5.48,0,0,0,3.52,1.83,6.07,6.07,0,0,0,2.67-.27A7.74,7.74,0,0,1-2037.83,418.87Z" transform="translate(2292.71 -340.16)"/><path class="cls-6" d="M-1981.2,397.2a3.45,3.45,0,0,1,.22,1.85,6.75,6.75,0,0,1-1.83,4.11,6.73,6.73,0,0,1-4,2,3.18,3.18,0,0,1-1.85-.14c0-.09.71,0,1.79-.23a7.21,7.21,0,0,0,3.7-2,7.14,7.14,0,0,0,1.83-3.78C-1981.19,397.92-1981.29,397.21-1981.2,397.2Z" transform="translate(2292.71 -340.16)"/><path class="cls-6" d="M-1975.09,407.67a1.65,1.65,0,0,1,.26.76,4.33,4.33,0,0,1-.21,2.19,3.38,3.38,0,0,1-2.42,2.23,3.56,3.56,0,0,1-2-.17,2.81,2.81,0,0,1-1.59-1.55l.5-.17a3.51,3.51,0,0,1,.13,1,4,4,0,0,1-2.51,3.57,3.4,3.4,0,0,1-2,.08,3.82,3.82,0,0,1-1.5-.83,3.59,3.59,0,0,1-1.21-2.1c-.09-.57,0-.89,0-.88s0,.32.17.84a3.67,3.67,0,0,0,1.25,1.85,3.14,3.14,0,0,0,3.08.58,3.56,3.56,0,0,0,2.15-3.12,3.18,3.18,0,0,0-.11-.82l.51-.17a2.69,2.69,0,0,0,3,1.44,3,3,0,0,0,2.18-1.89,4.57,4.57,0,0,0,.35-2A4.86,4.86,0,0,1-1975.09,407.67Z" transform="translate(2292.71 -340.16)"/><path class="cls-4" d="M-2005.58,422.53c.07,0,.11.23,0,.57a2.3,2.3,0,0,1-.74,1.12,2.3,2.3,0,0,1-1.24.52c-.35,0-.56-.06-.55-.13s.77-.22,1.45-.8S-2005.73,422.51-2005.58,422.53Z" transform="translate(2292.71 -340.16)"/><path class="cls-7" d="M-1767.23,709.34c-2.5,3.57-7.35,2.39-9.6.21s-3.2-5.33-4.07-8.34c-2-6.87-4-14.08-2.5-21.08a11.64,11.64,0,0,1,2.7-5.73,6.11,6.11,0,0,1,5.79-1.93c2.45.64,4,3,5.07,5.32a50.34,50.34,0,0,1,5,21.57c0,3.47-.4,7.11-2.36,10" transform="translate(2292.71 -340.16)"/><g class="cls-13"><path d="M-1767.23,709.34c-2.5,3.57-7.35,2.39-9.6.21s-3.2-5.33-4.07-8.34c-2-6.87-4-14.08-2.5-21.08a11.64,11.64,0,0,1,2.7-5.73,6.11,6.11,0,0,1,5.79-1.93c2.45.64,4,3,5.07,5.32a50.34,50.34,0,0,1,5,21.57c0,3.47-.4,7.11-2.36,10" transform="translate(2292.71 -340.16)"/></g><path class="cls-7" d="M-1776.59,727.4c-4.08-2.11-8.89-2.38-13.42-1.63-2.43.4-5,1.13-6.63,3s-2,5-.07,6.62a6.45,6.45,0,0,0,4.18,1.06c3.55,0,7.49-.67,10.32,1.47,1.62,1.21,2.7,3.24,4.63,3.84a4.58,4.58,0,0,0,5-2.24,7.83,7.83,0,0,0,.57-5.77A8.78,8.78,0,0,0-1776.59,727.4Z" transform="translate(2292.71 -340.16)"/><path class="cls-7" d="M-1760.38,714.46c-2.71-3.22-3.22-7.91-2-11.94a23,23,0,0,1,7.07-10.26,38,38,0,0,1,12.66-7.47,13.61,13.61,0,0,1,5.69-1,6,6,0,0,1,4.78,2.89c1.34,2.54.06,5.63-1.32,8.14a97.37,97.37,0,0,1-8.32,12.67c-2.49,3.21-5.35,6.38-9.15,7.83s-7.74,1.29-9.76-1.35" transform="translate(2292.71 -340.16)"/><path class="cls-4" d="M-1767.06,763.13a7.17,7.17,0,0,1-.23-1.62c-.11-1.18-.26-2.66-.43-4.42a64,64,0,0,0-1-6.49,50.15,50.15,0,0,0-2.36-7.65A28.08,28.08,0,0,0-1775,736a14.59,14.59,0,0,0-4.94-4.11,13.84,13.84,0,0,0-4.16-1.3,7.17,7.17,0,0,1-1.62-.23,8.38,8.38,0,0,1,1.65,0,12.49,12.49,0,0,1,4.34,1.13,14.52,14.52,0,0,1,5.21,4.14,27.7,27.7,0,0,1,4,7.06,46.94,46.94,0,0,1,2.34,7.79,53.5,53.5,0,0,1,.86,6.56c.14,1.88.2,3.4.22,4.45A7.83,7.83,0,0,1-1767.06,763.13Z" transform="translate(2292.71 -340.16)"/><path class="cls-4" d="M-1767.37,759.73a4.16,4.16,0,0,1,0-.76c0-.56,0-1.27,0-2.15,0-1.86,0-4.56-.1-7.9-.17-6.66-.74-15.87-1.85-26s-2.6-19.22-4-25.75c-.31-1.64-.64-3.11-.94-4.4s-.53-2.41-.77-3.31-.37-1.54-.5-2.09a2.6,2.6,0,0,1-.13-.74,3.1,3.1,0,0,1,.26.7l.62,2.06c.28.9.56,2,.89,3.29s.69,2.76,1,4.39a244.46,244.46,0,0,1,4.15,25.78c1.11,10.14,1.61,19.37,1.65,26.06,0,3.34,0,6-.11,7.91-.06.87-.1,1.58-.14,2.15A2.52,2.52,0,0,1-1767.37,759.73Z" transform="translate(2292.71 -340.16)"/><path class="cls-4" d="M-1767.41,741.92a13.85,13.85,0,0,1,0-2.25c.09-1.44.28-3.52.69-6.08a78.58,78.58,0,0,1,2-8.86,78.12,78.12,0,0,1,3.71-10.49,55.73,55.73,0,0,1,10.88-17,29.78,29.78,0,0,1,2.56-2.39c.4-.33.74-.66,1.1-.92s.69-.47,1-.69a16.14,16.14,0,0,1,1.89-1.21,68.28,68.28,0,0,0-6.19,5.53,58.86,58.86,0,0,0-10.62,16.89,85,85,0,0,0-3.73,10.39c-1,3.26-1.61,6.26-2.1,8.78s-.73,4.6-.9,6A15.43,15.43,0,0,1-1767.41,741.92Z" transform="translate(2292.71 -340.16)"/><path class="cls-4" d="M-2118.64,340.17a3.27,3.27,0,0,1-.7.09l-2,.17a22.66,22.66,0,0,0-3.29.48,18.11,18.11,0,0,0-2.07.42l-2.31.67a38.2,38.2,0,0,0-11,5.6,39.34,39.34,0,0,0-10.73,12.22,41.35,41.35,0,0,0-3.71,8.75,41.81,41.81,0,0,0-1.54,10.17,41.35,41.35,0,0,0,.16,5.43c.06.92.26,1.83.39,2.75a18.88,18.88,0,0,0,.56,2.77,39,39,0,0,0,4.32,10.82,38.68,38.68,0,0,0,18.43,16.38,35.75,35.75,0,0,0,12.9,2.74,34.82,34.82,0,0,0,13.41-2.09l1.31-.5.17-.06.16.08,19,9.37-.56.49c-2.08-6.24-4.11-12.29-6-18.09l-.08-.23.17-.16a40.37,40.37,0,0,0,9.73-16.61,41.43,41.43,0,0,0,1.24-17.57,40.68,40.68,0,0,0-5.13-14.82,40.32,40.32,0,0,0-8.65-10.35,41.29,41.29,0,0,0-9.35-5.8,40.78,40.78,0,0,0-7.87-2.38l-2.94-.47-2.17-.13-1.33-.08-.45-.06h.45l1.33,0,2.19.06,3,.41a40.38,40.38,0,0,1,8,2.29,41.61,41.61,0,0,1,9.51,5.78,40.84,40.84,0,0,1,8.83,10.42,41.08,41.08,0,0,1,5.29,15,42,42,0,0,1-1.2,17.87,41,41,0,0,1-9.87,16.94l.09-.4c1.95,5.8,4,11.85,6.08,18.08l.31.92-.86-.43-19-9.37.33,0-1.34.51a35.73,35.73,0,0,1-13.71,2.13,36.47,36.47,0,0,1-13.18-2.82,39.35,39.35,0,0,1-18.77-16.73,39.85,39.85,0,0,1-4.37-11,19.38,19.38,0,0,1-.55-2.81c-.13-1-.34-1.87-.39-2.8a41,41,0,0,1-.14-5.52,42.57,42.57,0,0,1,1.61-10.33,41.66,41.66,0,0,1,3.81-8.85,39.31,39.31,0,0,1,11-12.3,37.51,37.51,0,0,1,11.15-5.54l2.35-.64a18,18,0,0,1,2.09-.39,21.44,21.44,0,0,1,3.31-.4l2-.09A5.28,5.28,0,0,1-2118.64,340.17Z" transform="translate(2292.71 -340.16)"/><path class="cls-7" d="M-2109.7,375.05l-2.77,0-6.14-8.35-.06-5.52s-4.28-.22-3.7,7,0,5.4,0,5.4-9.08.13-9.83.93c-.54.58-.69,9.61-.73,14.51a5.3,5.3,0,0,0,3.82,5.29,4.17,4.17,0,0,0,1,.12c2.27,0,13.82-2,13.82-2l4.79-.05Z" transform="translate(2292.71 -340.16)"/><polygon class="cls-7" points="190.92 33.29 189.43 52.24 184.69 52.29 184.48 33.74 190.92 33.29"/></svg>